<svg width="160" viewBox="0 0 234 83" fill="none" xmlns="http://www.w3.org/2000/svg">
<path d="M79.9999 61.899H39.7979L59.8989 82L79.9999 61.899Z" fill="#1E327D" stroke="white" stroke-linecap="round"/>
<path d="M99.899 42.0001H59.697L79.798 62.1011L99.899 42.0001Z" fill="#627AE0" stroke="white" stroke-linecap="round"/>
<path d="M20.101 2.00001V42.202L40.202 22.101L20.101 2.00001Z" fill="#627AE0" stroke="white" stroke-linecap="round"/>
<path d="M99.6969 42.202V2.00001L79.5959 22.101L99.6969 42.202Z" fill="#627AE0" stroke="white" stroke-linecap="round"/>
<path d="M60.101 42.0001H19.899L40 62.1011L60.101 42.0001Z" fill="#627AE0" stroke="white" stroke-linecap="round"/>
<path d="M79.9999 22.1011H39.7979L59.8989 42.2021L79.9999 22.1011Z" fill="#627AE0" stroke="white" stroke-linecap="round"/>
<path d="M39.7979 61.8991H79.9999L59.8989 41.7981L39.7979 61.8991Z" fill="#63B1EF" stroke="white" stroke-linecap="round"/>
<path d="M59.697 42H99.899L79.798 21.899L59.697 42Z" fill="#63B1EF" stroke="white" stroke-linecap="round"/>
<path d="M19.899 42H60.101L40 21.899L19.899 42Z" fill="#63B1EF" stroke="white" stroke-linecap="round"/>
<path d="M39.7979 22.1011L79.9999 22.1011L59.8989 2.00008L39.7979 22.1011Z" fill="#63B1EF" stroke="white" stroke-linecap="round"/>
<path d="M86.7042 51V21.9091H98.1815C100.378 21.9091 102.253 22.3021 103.806 23.0881C105.369 23.8646 106.557 24.9678 107.372 26.3977C108.196 27.8182 108.608 29.4896 108.608 31.4119C108.608 33.3437 108.191 35.0057 107.358 36.3977C106.524 37.7803 105.317 38.8409 103.735 39.5795C102.163 40.3182 100.26 40.6875 98.0252 40.6875H90.3406V35.7443H97.0309C98.2051 35.7443 99.1805 35.5833 99.957 35.2614C100.734 34.9394 101.311 34.4564 101.69 33.8125C102.078 33.1686 102.272 32.3684 102.272 31.4119C102.272 30.446 102.078 29.6316 101.69 28.9688C101.311 28.3059 100.729 27.804 99.9428 27.4631C99.1663 27.1127 98.1862 26.9375 97.0025 26.9375H92.8548V51H86.7042ZM102.414 37.7614L109.645 51H102.855L95.7809 37.7614H102.414ZM122.432 51.4261C120.188 51.4261 118.256 50.9716 116.637 50.0625C115.027 49.1439 113.786 47.8466 112.915 46.1705C112.044 44.4848 111.608 42.4915 111.608 40.1903C111.608 37.946 112.044 35.9763 112.915 34.2812C113.786 32.5862 115.013 31.2652 116.594 30.3182C118.185 29.3712 120.051 28.8977 122.191 28.8977C123.63 28.8977 124.97 29.1297 126.211 29.5938C127.461 30.0483 128.55 30.7348 129.478 31.6534C130.415 32.572 131.144 33.7273 131.665 35.1193C132.186 36.5019 132.446 38.1212 132.446 39.9773V41.6392H114.023V37.8892H126.75C126.75 37.018 126.561 36.2462 126.182 35.5739C125.803 34.9015 125.278 34.3759 124.605 33.9972C123.943 33.6089 123.171 33.4148 122.29 33.4148C121.372 33.4148 120.557 33.6278 119.847 34.054C119.146 34.4706 118.597 35.0341 118.199 35.7443C117.801 36.4451 117.598 37.2263 117.588 38.0881V41.6534C117.588 42.733 117.787 43.6657 118.185 44.4517C118.592 45.2377 119.165 45.8438 119.904 46.2699C120.642 46.696 121.518 46.9091 122.532 46.9091C123.204 46.9091 123.819 46.8144 124.378 46.625C124.937 46.4356 125.415 46.1515 125.813 45.7727C126.211 45.3939 126.514 44.9299 126.722 44.3807L132.319 44.75C132.034 46.0947 131.452 47.2689 130.571 48.2727C129.7 49.267 128.573 50.0436 127.191 50.6023C125.818 51.1515 124.231 51.4261 122.432 51.4261ZM136.395 59.1818V29.1818H142.361V32.8466H142.631C142.896 32.2595 143.28 31.6629 143.782 31.0568C144.293 30.4413 144.956 29.9299 145.77 29.5227C146.594 29.1061 147.617 28.8977 148.838 28.8977C150.429 28.8977 151.897 29.3144 153.242 30.1477C154.587 30.9716 155.661 32.2169 156.466 33.8835C157.271 35.5407 157.674 37.6193 157.674 40.1193C157.674 42.553 157.281 44.608 156.495 46.2841C155.718 47.9508 154.658 49.215 153.313 50.0767C151.978 50.929 150.481 51.3551 148.824 51.3551C147.65 51.3551 146.651 51.161 145.827 50.7727C145.013 50.3845 144.345 49.8968 143.824 49.3097C143.303 48.7131 142.906 48.1117 142.631 47.5057H142.446V59.1818H136.395ZM142.319 40.0909C142.319 41.3883 142.498 42.5199 142.858 43.4858C143.218 44.4517 143.739 45.2045 144.421 45.7443C145.103 46.2746 145.931 46.5398 146.907 46.5398C147.891 46.5398 148.725 46.2699 149.407 45.7301C150.088 45.1809 150.605 44.4233 150.955 43.4574C151.315 42.482 151.495 41.3598 151.495 40.0909C151.495 38.8314 151.319 37.7235 150.969 36.767C150.619 35.8106 150.103 35.0625 149.421 34.5227C148.739 33.983 147.901 33.7131 146.907 33.7131C145.922 33.7131 145.088 33.9735 144.407 34.4943C143.734 35.0152 143.218 35.7538 142.858 36.7102C142.498 37.6667 142.319 38.7936 142.319 40.0909ZM167.929 51.4119C166.537 51.4119 165.297 51.1705 164.208 50.6875C163.119 50.1951 162.257 49.4706 161.623 48.5142C160.998 47.5483 160.685 46.3456 160.685 44.9062C160.685 43.6941 160.908 42.6761 161.353 41.8523C161.798 41.0284 162.404 40.3655 163.171 39.8636C163.938 39.3617 164.809 38.983 165.784 38.7273C166.769 38.4716 167.801 38.2917 168.881 38.1875C170.15 38.0549 171.173 37.9318 171.949 37.8182C172.726 37.6951 173.289 37.5152 173.64 37.2784C173.99 37.0417 174.165 36.6913 174.165 36.2273V36.142C174.165 35.2424 173.881 34.5464 173.313 34.054C172.754 33.5616 171.959 33.3153 170.926 33.3153C169.837 33.3153 168.971 33.5568 168.327 34.0398C167.683 34.5133 167.257 35.1098 167.049 35.8295L161.452 35.375C161.736 34.0492 162.295 32.9034 163.128 31.9375C163.962 30.9621 165.036 30.214 166.353 29.6932C167.678 29.1629 169.212 28.8977 170.955 28.8977C172.167 28.8977 173.327 29.0398 174.435 29.3239C175.552 29.608 176.542 30.0483 177.404 30.6449C178.275 31.2415 178.962 32.0085 179.463 32.946C179.965 33.8741 180.216 34.9867 180.216 36.2841V51H174.478V47.9744H174.307C173.957 48.6562 173.488 49.2576 172.901 49.7784C172.314 50.2898 171.608 50.6922 170.784 50.9858C169.961 51.2699 169.009 51.4119 167.929 51.4119ZM169.662 47.2358C170.552 47.2358 171.338 47.0606 172.02 46.7102C172.702 46.3504 173.237 45.8674 173.625 45.2614C174.014 44.6553 174.208 43.9687 174.208 43.2017V40.8864C174.018 41.0095 173.758 41.1231 173.426 41.2273C173.105 41.322 172.74 41.4119 172.333 41.4972C171.926 41.5729 171.518 41.6439 171.111 41.7102C170.704 41.767 170.335 41.8191 170.003 41.8665C169.293 41.9706 168.673 42.1364 168.142 42.3636C167.612 42.5909 167.2 42.8987 166.907 43.2869C166.613 43.6657 166.466 44.1392 166.466 44.7074C166.466 45.5312 166.765 46.161 167.361 46.5966C167.967 47.0227 168.734 47.2358 169.662 47.2358ZM184.911 51V29.1818H190.962V51H184.911ZM187.951 26.3693C187.051 26.3693 186.279 26.071 185.635 25.4744C185.001 24.8684 184.684 24.1439 184.684 23.3011C184.684 22.4678 185.001 21.7528 185.635 21.1562C186.279 20.5502 187.051 20.2472 187.951 20.2472C188.85 20.2472 189.617 20.5502 190.252 21.1562C190.896 21.7528 191.218 22.4678 191.218 23.3011C191.218 24.1439 190.896 24.8684 190.252 25.4744C189.617 26.071 188.85 26.3693 187.951 26.3693ZM201.86 38.3864V51H195.809V29.1818H201.576V33.0312H201.832C202.315 31.7623 203.125 30.7585 204.261 30.0199C205.397 29.2718 206.775 28.8977 208.395 28.8977C209.91 28.8977 211.231 29.2292 212.358 29.892C213.484 30.5549 214.36 31.5019 214.985 32.733C215.61 33.9545 215.923 35.4129 215.923 37.108V51H209.872V38.1875C209.881 36.8523 209.54 35.8106 208.849 35.0625C208.158 34.3049 207.206 33.9261 205.994 33.9261C205.18 33.9261 204.46 34.1013 203.835 34.4517C203.219 34.8021 202.736 35.3134 202.386 35.9858C202.045 36.6487 201.87 37.4489 201.86 38.3864ZM232.297 29.1818V33.7273H219.158V29.1818H232.297ZM222.141 23.9545H228.192V44.2955C228.192 44.8542 228.277 45.2898 228.448 45.6023C228.618 45.9053 228.855 46.1184 229.158 46.2415C229.471 46.3646 229.83 46.4261 230.238 46.4261C230.522 46.4261 230.806 46.4025 231.09 46.3551C231.374 46.2983 231.592 46.2557 231.743 46.2273L232.695 50.7301C232.392 50.8248 231.966 50.9337 231.417 51.0568C230.867 51.1894 230.2 51.2699 229.414 51.2983C227.955 51.3551 226.677 51.161 225.578 50.7159C224.489 50.2708 223.642 49.5795 223.036 48.642C222.43 47.7045 222.132 46.5208 222.141 45.0909V23.9545Z" fill="black"/>
</svg>
