<svg width="136" height="38" viewBox="0 0 136 38" fill="none" xmlns="http://www.w3.org/2000/svg">
<path d="M21.5486 19.7472L20.3398 27H16.8685L18.9594 14.4545H22.2673L21.9079 16.668H22.0468C22.4443 15.9329 23.0051 15.353 23.7293 14.9283C24.459 14.5036 25.2893 14.2912 26.2204 14.2912C27.0916 14.2912 27.8186 14.4818 28.4012 14.8629C28.9893 15.2441 29.4031 15.7859 29.6427 16.4883C29.8877 17.1907 29.9285 18.032 29.7652 19.0121L28.4257 27H24.9463L26.1796 19.6328C26.3048 18.8651 26.2068 18.2661 25.8856 17.8359C25.5698 17.4003 25.0606 17.1825 24.3582 17.1825C23.8899 17.1825 23.4598 17.2833 23.0677 17.4847C22.6757 17.6862 22.3463 17.9802 22.0795 18.3668C21.8181 18.748 21.6411 19.2081 21.5486 19.7472ZM36.8363 27.245C35.5513 27.245 34.4867 26.9837 33.6428 26.4609C32.7988 25.9328 32.2053 25.1868 31.8622 24.223C31.5246 23.2538 31.4674 22.1076 31.6907 20.7844C31.9085 19.494 32.3468 18.3614 33.0057 17.3867C33.67 16.4121 34.5031 15.6525 35.505 15.108C36.5069 14.5634 37.6231 14.2912 38.8537 14.2912C39.6813 14.2912 40.43 14.4246 41.0998 14.6914C41.775 14.9528 42.3358 15.3503 42.7823 15.8839C43.2288 16.412 43.5337 17.0736 43.6971 17.8686C43.8659 18.6636 43.8632 19.5947 43.6889 20.6619L43.5337 21.6175H32.9485L33.2834 19.4613H40.6016C40.6832 18.9603 40.6506 18.5166 40.5036 18.13C40.3565 17.7434 40.1115 17.4412 39.7685 17.2234C39.4254 17.0001 39.0034 16.8885 38.5025 16.8885C37.9906 16.8885 37.5115 17.0137 37.065 17.2642C36.6185 17.5147 36.2428 17.8441 35.9379 18.2525C35.6384 18.6554 35.4451 19.0937 35.358 19.5675L34.9741 21.7074C34.8652 22.3662 34.887 22.9135 35.0394 23.3491C35.1973 23.7847 35.4696 24.1114 35.8562 24.3292C36.2428 24.5415 36.7328 24.6477 37.3263 24.6477C37.7129 24.6477 38.075 24.5933 38.4126 24.4844C38.7557 24.3755 39.0606 24.2148 39.3274 24.0025C39.5942 23.7847 39.812 23.5152 39.9808 23.1939L43.158 23.4062C42.864 24.1795 42.4175 24.8546 41.8185 25.4318C41.2196 26.0036 40.4981 26.45 39.6541 26.7713C38.8156 27.0871 37.8763 27.245 36.8363 27.245ZM49.6942 14.4545L51.2623 18.8406L54.3579 14.4545H57.9271L53.2471 20.7273L55.9342 27H52.3813L50.6253 22.663L47.4726 27H43.8788L48.6487 20.7273L46.1004 14.4545H49.6942ZM66.6665 14.4545L66.2336 17.0682H58.6704L59.1114 14.4545H66.6665ZM61.3167 11.4489H64.7961L62.8522 23.1449C62.7977 23.4661 62.8059 23.7166 62.8767 23.8963C62.9475 24.0705 63.0645 24.1931 63.2279 24.2638C63.3967 24.3346 63.5982 24.37 63.8323 24.37C63.9957 24.37 64.1617 24.3564 64.3305 24.3292C64.4993 24.2965 64.6273 24.272 64.7144 24.2557L64.8451 26.8448C64.6491 26.9047 64.385 26.9701 64.0528 27.0408C63.7261 27.1116 63.3395 27.1552 62.893 27.1715C62.0436 27.2042 61.3248 27.0926 60.7368 26.8366C60.1487 26.5753 59.7267 26.1751 59.4708 25.636C59.2149 25.0969 59.1604 24.419 59.3074 23.6023L61.3167 11.4489Z" fill="white"/>
<path d="M83 16.5C81.6193 16.5 80.5 17.6193 80.5 19C80.5 20.3807 81.6193 21.5 83 21.5V16.5ZM134.768 20.7678C135.744 19.7915 135.744 18.2085 134.768 17.2322L118.858 1.32233C117.882 0.34602 116.299 0.34602 115.322 1.32233C114.346 2.29864 114.346 3.88155 115.322 4.85786L129.464 19L115.322 33.1421C114.346 34.1184 114.346 35.7014 115.322 36.6777C116.299 37.654 117.882 37.654 118.858 36.6777L134.768 20.7678ZM83 21.5H133V16.5H83V21.5Z" fill="white"/>
</svg>
