<svg width="136" height="38" viewBox="0 0 136 38" fill="none" xmlns="http://www.w3.org/2000/svg">
<path d="M53 21.5C54.3807 21.5 55.5 20.3807 55.5 19C55.5 17.6193 54.3807 16.5 53 16.5V21.5ZM1.23223 17.2322C0.255922 18.2085 0.255922 19.7915 1.23223 20.7678L17.1421 36.6777C18.1184 37.654 19.7014 37.654 20.6777 36.6777C21.654 35.7014 21.654 34.1184 20.6777 33.1421L6.53553 19L20.6777 4.85786C21.654 3.88155 21.654 2.29864 20.6777 1.32233C19.7014 0.34602 18.1184 0.34602 17.1421 1.32233L1.23223 17.2322ZM53 16.5L3 16.5V21.5L53 21.5V16.5Z" fill="white"/>
<path d="M68.9272 31.7045L71.8185 14.4545H75.2489L74.8977 16.5618H75.0529C75.2598 16.2242 75.5348 15.8812 75.8778 15.5327C76.2263 15.1787 76.6592 14.8847 77.1765 14.6506C77.6938 14.411 78.3009 14.2912 78.9979 14.2912C79.9181 14.2912 80.7212 14.5308 81.4073 15.0099C82.0934 15.4837 82.5889 16.1997 82.8938 17.158C83.2042 18.1109 83.2396 19.3061 83 20.7436C82.7713 22.143 82.3493 23.3246 81.734 24.2884C81.1242 25.2467 80.3918 25.9736 79.5369 26.4691C78.6875 26.9592 77.7863 27.2042 76.8335 27.2042C76.1583 27.2042 75.6029 27.0926 75.1673 26.8693C74.7371 26.6461 74.4022 26.3656 74.1626 26.0281C73.9231 25.685 73.7543 25.3393 73.6562 24.9908H73.5256L72.4148 31.7045H68.9272ZM74.179 20.7273C74.0592 21.4732 74.0537 22.1239 74.1626 22.6793C74.277 23.2347 74.5057 23.6676 74.8487 23.978C75.1918 24.2829 75.6437 24.4354 76.2045 24.4354C76.7708 24.4354 77.2745 24.2802 77.7156 23.9698C78.1566 23.654 78.5241 23.2184 78.8182 22.663C79.1122 22.1022 79.3219 21.4569 79.4471 20.7273C79.5614 20.0031 79.5642 19.366 79.4553 18.8161C79.3464 18.2661 79.1231 17.8359 78.7855 17.5256C78.4479 17.2152 77.9905 17.06 77.4134 17.06C76.8525 17.06 76.3488 17.2098 75.9023 17.5092C75.4613 17.8087 75.0938 18.2334 74.7997 18.7834C74.5057 19.3333 74.2988 19.9813 74.179 20.7273ZM84.2639 27L86.3548 14.4545H89.7281L89.3605 16.6435H89.4912C89.8506 15.8648 90.3325 15.2768 90.9369 14.8793C91.5467 14.4763 92.2029 14.2749 92.9053 14.2749C93.0795 14.2749 93.2619 14.2857 93.4525 14.3075C93.6485 14.3239 93.8228 14.3511 93.9752 14.3892L93.4525 17.4847C93.3 17.4303 93.0822 17.3867 92.7991 17.354C92.5214 17.3159 92.2573 17.2969 92.0068 17.2969C91.5004 17.2969 91.0294 17.4085 90.5938 17.6317C90.1582 17.8495 89.7907 18.1545 89.4912 18.5465C89.1972 18.9386 89.0039 19.3905 88.9113 19.9023L87.7433 27H84.2639ZM98.7757 27.245C97.4907 27.245 96.4262 26.9837 95.5822 26.4609C94.7382 25.9328 94.1447 25.1868 93.8017 24.223C93.4641 23.2538 93.4069 22.1076 93.6301 20.7844C93.848 19.494 94.2863 18.3614 94.9451 17.3867C95.6094 16.4121 96.4425 15.6525 97.4444 15.108C98.4463 14.5634 99.5626 14.2912 100.793 14.2912C101.621 14.2912 102.369 14.4246 103.039 14.6914C103.714 14.9528 104.275 15.3503 104.722 15.8839C105.168 16.412 105.473 17.0736 105.637 17.8686C105.805 18.6636 105.803 19.5947 105.628 20.6619L105.473 21.6175H94.888L95.2228 19.4613H102.541C102.623 18.9603 102.59 18.5166 102.443 18.13C102.296 17.7434 102.051 17.4412 101.708 17.2234C101.365 17.0001 100.943 16.8885 100.442 16.8885C99.9301 16.8885 99.4509 17.0137 99.0044 17.2642C98.5579 17.5147 98.1822 17.8441 97.8773 18.2525C97.5778 18.6554 97.3845 19.0937 97.2974 19.5675L96.9135 21.7074C96.8046 22.3662 96.8264 22.9135 96.9789 23.3491C97.1368 23.7847 97.409 24.1114 97.7956 24.3292C98.1822 24.5415 98.6723 24.6477 99.2658 24.6477C99.6524 24.6477 100.015 24.5933 100.352 24.4844C100.695 24.3755 101 24.2148 101.267 24.0025C101.534 23.7847 101.751 23.5152 101.92 23.1939L105.097 23.4062C104.803 24.1795 104.357 24.8546 103.758 25.4318C103.159 26.0036 102.438 26.45 101.594 26.7713C100.755 27.0871 99.8158 27.245 98.7757 27.245ZM120.31 14.4545L113.833 27H109.912L107.617 14.4545H111.162L112.273 23.4308H112.403L116.495 14.4545H120.31Z" fill="white"/>
</svg>
