<svg width="1135" height="90" viewBox="0 0 1135 90" fill="none" xmlns="http://www.w3.org/2000/svg">
<path d="M40.0364 66.5241C40.0553 65.866 39.8541 65.3617 39.4327 65.0114C39.016 64.661 38.4171 64.4858 37.6358 64.4858C37.0866 64.4858 36.6013 64.5687 36.1799 64.7344C35.7632 64.8954 35.427 65.1203 35.1713 65.4091C34.9157 65.6932 34.757 66.0175 34.6955 66.3821C34.6434 66.6804 34.6694 66.9408 34.7736 67.1634C34.8778 67.3859 35.0364 67.5753 35.2495 67.7315C35.4673 67.8878 35.7135 68.018 35.9881 68.1222C36.2675 68.2263 36.5516 68.3139 36.8404 68.3849L38.1472 68.7259C38.668 68.8537 39.1652 69.0265 39.6387 69.2443C40.1122 69.4574 40.5217 69.732 40.8674 70.0682C41.2177 70.3996 41.4734 70.7997 41.6344 71.2685C41.7954 71.7372 41.8214 72.2865 41.7125 72.9162C41.5705 73.7685 41.2272 74.5189 40.6827 75.1676C40.1429 75.8116 39.4327 76.3158 38.552 76.6804C37.6761 77.0402 36.6557 77.2202 35.4909 77.2202C34.3641 77.2202 33.4123 77.045 32.6358 76.6946C31.8593 76.3395 31.2911 75.8258 30.9313 75.1534C30.5762 74.4811 30.4625 73.6643 30.5904 72.7031H33.1827C33.1306 73.2098 33.2135 73.6312 33.4313 73.9673C33.6538 74.3035 33.9734 74.5545 34.3901 74.7202C34.8068 74.8859 35.2897 74.9688 35.839 74.9688C36.4119 74.9688 36.9303 74.8835 37.3944 74.7131C37.8584 74.5379 38.2372 74.2964 38.5307 73.9886C38.829 73.6761 39.0113 73.3116 39.0776 72.8949C39.1439 72.5208 39.0894 72.2083 38.9142 71.9574C38.7391 71.7064 38.4668 71.4981 38.0975 71.3324C37.7329 71.1619 37.2973 71.0104 36.7907 70.8778L35.214 70.4517C34.0729 70.1392 33.2064 69.6705 32.6145 69.0455C32.0274 68.4205 31.8191 67.5871 31.9895 66.5455C32.1316 65.6837 32.4891 64.9332 33.062 64.294C33.6349 63.6501 34.3522 63.1506 35.214 62.7955C36.0757 62.4356 37.0179 62.2557 38.0407 62.2557C39.0729 62.2557 39.9464 62.4356 40.6614 62.7955C41.3811 63.1553 41.9067 63.6572 42.2381 64.3011C42.5743 64.9403 42.6855 65.6813 42.5719 66.5241H40.0364ZM48.0744 77.2131C46.9806 77.2131 46.0763 76.9858 45.3613 76.5312C44.6464 76.072 44.1445 75.4233 43.8556 74.5852C43.5716 73.7424 43.5242 72.7505 43.7136 71.6094C43.8983 70.4872 44.2747 69.5024 44.8429 68.6548C45.411 67.8026 46.1213 67.1397 46.9735 66.6662C47.8306 66.188 48.7775 65.9489 49.8145 65.9489C50.4868 65.9489 51.1047 66.0578 51.6681 66.2756C52.2316 66.4886 52.7074 66.8201 53.0957 67.2699C53.484 67.7197 53.7515 68.2926 53.8983 68.9886C54.045 69.6799 54.0379 70.5038 53.877 71.4602L53.7562 72.2486H44.8074L45.0843 70.5156H51.5616C51.6468 70.0232 51.6184 69.5852 51.4764 69.2017C51.3343 68.8134 51.0976 68.508 50.7662 68.2855C50.4347 68.063 50.0204 67.9517 49.5233 67.9517C49.0166 67.9517 48.5431 68.0819 48.1028 68.3423C47.6672 68.598 47.3002 68.9295 47.002 69.3366C46.7037 69.7438 46.5143 70.1723 46.4338 70.6222L46.1426 72.2841C46.0384 72.9659 46.0621 73.5223 46.2136 73.9531C46.3651 74.384 46.6303 74.7012 47.0091 74.9048C47.3878 75.1084 47.8661 75.2102 48.4437 75.2102C48.8225 75.2102 49.1729 75.1581 49.4949 75.054C49.8168 74.9498 50.1033 74.7936 50.3542 74.5852C50.6099 74.3722 50.823 74.1117 50.9934 73.804L53.3443 74.0739C53.0839 74.7083 52.7027 75.2623 52.2008 75.7358C51.6989 76.2045 51.0976 76.5691 50.3968 76.8295C49.7008 77.0852 48.9267 77.2131 48.0744 77.2131ZM60.1341 62.4545L57.7193 77H55.1483L57.563 62.4545H60.1341ZM65.1642 77.2131C64.0705 77.2131 63.1661 76.9858 62.4512 76.5312C61.7362 76.072 61.2343 75.4233 60.9455 74.5852C60.6614 73.7424 60.6141 72.7505 60.8034 71.6094C60.9881 70.4872 61.3645 69.5024 61.9327 68.6548C62.5009 67.8026 63.2111 67.1397 64.0634 66.6662C64.9204 66.188 65.8674 65.9489 66.9043 65.9489C67.5766 65.9489 68.1945 66.0578 68.758 66.2756C69.3214 66.4886 69.7973 66.8201 70.1855 67.2699C70.5738 67.7197 70.8413 68.2926 70.9881 68.9886C71.1349 69.6799 71.1278 70.5038 70.9668 71.4602L70.8461 72.2486H61.8972L62.1742 70.5156H68.6515C68.7367 70.0232 68.7083 69.5852 68.5662 69.2017C68.4242 68.8134 68.1874 68.508 67.856 68.2855C67.5246 68.063 67.1103 67.9517 66.6131 67.9517C66.1065 67.9517 65.633 68.0819 65.1926 68.3423C64.757 68.598 64.3901 68.9295 64.0918 69.3366C63.7935 69.7438 63.6041 70.1723 63.5236 70.6222L63.2324 72.2841C63.1283 72.9659 63.1519 73.5223 63.3034 73.9531C63.455 74.384 63.7201 74.7012 64.0989 74.9048C64.4777 75.1084 64.9559 75.2102 65.5336 75.2102C65.9123 75.2102 66.2627 75.1581 66.5847 75.054C66.9067 74.9498 67.1931 74.7936 67.4441 74.5852C67.6998 74.3722 67.9128 74.1117 68.0833 73.804L70.4341 74.0739C70.1737 74.7083 69.7926 75.2623 69.2907 75.7358C68.7888 76.2045 68.1874 76.5691 67.4867 76.8295C66.7907 77.0852 66.0165 77.2131 65.1642 77.2131ZM76.9682 77.2131C75.8792 77.2131 74.9843 76.974 74.2836 76.4957C73.5828 76.0175 73.0927 75.357 72.8134 74.5142C72.5388 73.6667 72.4938 72.6913 72.6784 71.5881C72.8584 70.4801 73.2301 69.5024 73.7935 68.6548C74.3617 67.8026 75.0766 67.1397 75.9384 66.6662C76.8001 66.188 77.7637 65.9489 78.829 65.9489C79.7144 65.9489 80.4696 66.1122 81.0946 66.4389C81.7244 66.7609 82.1931 67.2178 82.5009 67.8097C82.8134 68.3968 82.9341 69.0833 82.8631 69.8693H80.3986C80.3891 69.3437 80.2258 68.9058 79.9086 68.5554C79.5913 68.2003 79.1273 68.0227 78.5165 68.0227C77.9862 68.0227 77.4985 68.1648 77.0534 68.4489C76.6084 68.7282 76.2319 69.1307 75.9242 69.6562C75.6164 70.1818 75.4033 70.8116 75.285 71.5455C75.1619 72.2888 75.1642 72.928 75.2921 73.4631C75.4247 73.9934 75.6638 74.4029 76.0094 74.6918C76.3598 74.9759 76.8025 75.1179 77.3375 75.1179C77.7163 75.1179 78.0691 75.0469 78.3958 74.9048C78.7225 74.758 79.0089 74.5473 79.2551 74.2727C79.5061 73.9981 79.7026 73.6643 79.8446 73.2713H82.302C82.1079 74.0431 81.7623 74.7273 81.2651 75.3239C80.7727 75.9157 80.1619 76.3797 79.4327 76.7159C78.7035 77.0473 77.882 77.2131 76.9682 77.2131ZM91.0467 66.0909L90.7129 68.0795H84.4487L84.7754 66.0909H91.0467ZM86.7498 63.4773H89.3208L87.6163 73.7188C87.5642 74.0644 87.5737 74.3295 87.6447 74.5142C87.7205 74.6941 87.8412 74.8172 88.0069 74.8835C88.1774 74.9498 88.3691 74.983 88.5822 74.983C88.7385 74.983 88.8852 74.9711 89.0225 74.9474C89.1599 74.919 89.2688 74.8977 89.3493 74.8835L89.4629 76.8935C89.3066 76.9408 89.0959 76.9929 88.8308 77.0497C88.5704 77.1065 88.2579 77.1397 87.8933 77.1491C87.2399 77.1634 86.6717 77.0639 86.1887 76.8509C85.7105 76.633 85.3601 76.2992 85.1376 75.8494C84.9198 75.3949 84.8701 74.8267 84.9885 74.1449L86.7498 63.4773ZM106.091 66.5241C106.11 65.866 105.909 65.3617 105.487 65.0114C105.071 64.661 104.472 64.4858 103.691 64.4858C103.141 64.4858 102.656 64.5687 102.235 64.7344C101.818 64.8954 101.482 65.1203 101.226 65.4091C100.97 65.6932 100.812 66.0175 100.75 66.3821C100.698 66.6804 100.724 66.9408 100.828 67.1634C100.932 67.3859 101.091 67.5753 101.304 67.7315C101.522 67.8878 101.768 68.018 102.043 68.1222C102.322 68.2263 102.606 68.3139 102.895 68.3849L104.202 68.7259C104.723 68.8537 105.22 69.0265 105.693 69.2443C106.167 69.4574 106.576 69.732 106.922 70.0682C107.272 70.3996 107.528 70.7997 107.689 71.2685C107.85 71.7372 107.876 72.2865 107.767 72.9162C107.625 73.7685 107.282 74.5189 106.737 75.1676C106.198 75.8116 105.487 76.3158 104.607 76.6804C103.731 77.0402 102.71 77.2202 101.546 77.2202C100.419 77.2202 99.467 77.045 98.6905 76.6946C97.914 76.3395 97.3458 75.8258 96.986 75.1534C96.6309 74.4811 96.5172 73.6643 96.6451 72.7031H99.2374C99.1853 73.2098 99.2682 73.6312 99.486 73.9673C99.7085 74.3035 100.028 74.5545 100.445 74.7202C100.861 74.8859 101.344 74.9688 101.894 74.9688C102.467 74.9688 102.985 74.8835 103.449 74.7131C103.913 74.5379 104.292 74.2964 104.585 73.9886C104.884 73.6761 105.066 73.3116 105.132 72.8949C105.199 72.5208 105.144 72.2083 104.969 71.9574C104.794 71.7064 104.521 71.4981 104.152 71.3324C103.788 71.1619 103.352 71.0104 102.845 70.8778L101.269 70.4517C100.128 70.1392 99.2611 69.6705 98.6692 69.0455C98.0821 68.4205 97.8738 67.5871 98.0442 66.5455C98.1863 65.6837 98.5437 64.9332 99.1167 64.294C99.6896 63.6501 100.407 63.1506 101.269 62.7955C102.13 62.4356 103.073 62.2557 104.095 62.2557C105.128 62.2557 106.001 62.4356 106.716 62.7955C107.436 63.1553 107.961 63.6572 108.293 64.3011C108.629 64.9403 108.74 65.6813 108.627 66.5241H106.091ZM116.594 66.0909L116.26 68.0795H109.996L110.322 66.0909H116.594ZM112.297 63.4773H114.868L113.163 73.7188C113.111 74.0644 113.121 74.3295 113.192 74.5142C113.267 74.6941 113.388 74.8172 113.554 74.8835C113.724 74.9498 113.916 74.983 114.129 74.983C114.285 74.983 114.432 74.9711 114.569 74.9474C114.707 74.919 114.816 74.8977 114.896 74.8835L115.01 76.8935C114.854 76.9408 114.643 76.9929 114.378 77.0497C114.117 77.1065 113.805 77.1397 113.44 77.1491C112.787 77.1634 112.219 77.0639 111.736 76.8509C111.257 76.633 110.907 76.2992 110.684 75.8494C110.467 75.3949 110.417 74.8267 110.535 74.1449L112.297 63.4773ZM117.856 81.0909C117.506 81.0909 117.186 81.0625 116.897 81.0057C116.613 80.9536 116.388 80.892 116.222 80.821L117.16 78.8182C117.515 78.9271 117.835 78.9744 118.119 78.9602C118.408 78.9508 118.673 78.8537 118.914 78.669C119.16 78.4891 119.402 78.1932 119.639 77.7812L119.965 77.1918L117.877 66.0909H120.505L121.642 74.3438H121.755L125.654 66.0909H128.488L122.103 78.3068C121.795 78.8987 121.438 79.4006 121.031 79.8125C120.624 80.2292 120.157 80.5464 119.632 80.7642C119.111 80.982 118.519 81.0909 117.856 81.0909ZM133.435 62.4545L131.02 77H128.449L130.864 62.4545H133.435ZM138.465 77.2131C137.371 77.2131 136.467 76.9858 135.752 76.5312C135.037 76.072 134.535 75.4233 134.246 74.5852C133.962 73.7424 133.915 72.7505 134.104 71.6094C134.289 70.4872 134.665 69.5024 135.233 68.6548C135.802 67.8026 136.512 67.1397 137.364 66.6662C138.221 66.188 139.168 65.9489 140.205 65.9489C140.877 65.9489 141.495 66.0578 142.059 66.2756C142.622 66.4886 143.098 66.8201 143.486 67.2699C143.875 67.7197 144.142 68.2926 144.289 68.9886C144.436 69.6799 144.429 70.5038 144.268 71.4602L144.147 72.2486H135.198L135.475 70.5156H141.952C142.037 70.0232 142.009 69.5852 141.867 69.2017C141.725 68.8134 141.488 68.508 141.157 68.2855C140.825 68.063 140.411 67.9517 139.914 67.9517C139.407 67.9517 138.934 68.0819 138.493 68.3423C138.058 68.598 137.691 68.9295 137.393 69.3366C137.094 69.7438 136.905 70.1723 136.824 70.6222L136.533 72.2841C136.429 72.9659 136.453 73.5223 136.604 73.9531C136.756 74.384 137.021 74.7012 137.4 74.9048C137.778 75.1084 138.257 75.2102 138.834 75.2102C139.213 75.2102 139.564 75.1581 139.885 75.054C140.207 74.9498 140.494 74.7936 140.745 74.5852C141.001 74.3722 141.214 74.1117 141.384 73.804L143.735 74.0739C143.474 74.7083 143.093 75.2623 142.591 75.7358C142.09 76.2045 141.488 76.5691 140.787 76.8295C140.091 77.0852 139.317 77.2131 138.465 77.2131Z" fill="white"/>
<path d="M345.015 77.2131C343.926 77.2131 343.031 76.974 342.33 76.4957C341.63 76.0175 341.14 75.357 340.86 74.5142C340.586 73.6667 340.541 72.6913 340.725 71.5881C340.905 70.4801 341.277 69.5024 341.84 68.6548C342.409 67.8026 343.124 67.1397 343.985 66.6662C344.847 66.188 345.811 65.9489 346.876 65.9489C347.761 65.9489 348.517 66.1122 349.142 66.4389C349.771 66.7609 350.24 67.2178 350.548 67.8097C350.86 68.3968 350.981 69.0833 350.91 69.8693H348.445C348.436 69.3437 348.273 68.9058 347.955 68.5554C347.638 68.2003 347.174 68.0227 346.563 68.0227C346.033 68.0227 345.545 68.1648 345.1 68.4489C344.655 68.7282 344.279 69.1307 343.971 69.6562C343.663 70.1818 343.45 70.8116 343.332 71.5455C343.209 72.2888 343.211 72.928 343.339 73.4631C343.472 73.9934 343.711 74.4029 344.056 74.6918C344.407 74.9759 344.849 75.1179 345.384 75.1179C345.763 75.1179 346.116 75.0469 346.443 74.9048C346.769 74.758 347.056 74.5473 347.302 74.2727C347.553 73.9981 347.749 73.6643 347.892 73.2713H350.349C350.155 74.0431 349.809 74.7273 349.312 75.3239C348.82 75.9157 348.209 76.3797 347.48 76.7159C346.75 77.0473 345.929 77.2131 345.015 77.2131ZM355.464 70.608L354.413 77H351.835L354.25 62.4545H356.771L355.862 67.9446H355.997C356.343 67.3243 356.814 66.8366 357.41 66.4815C358.012 66.1264 358.734 65.9489 359.577 65.9489C360.325 65.9489 360.954 66.1075 361.466 66.4247C361.977 66.742 362.337 67.206 362.545 67.8168C362.758 68.4276 362.794 69.1733 362.652 70.054L361.487 77H358.909L360.003 70.4517C360.121 69.7178 360.024 69.1473 359.711 68.7401C359.404 68.3281 358.916 68.1222 358.248 68.1222C357.789 68.1222 357.365 68.2216 356.977 68.4205C356.589 68.6146 356.262 68.8963 355.997 69.2656C355.737 69.6349 355.559 70.0824 355.464 70.608ZM368.881 77.2131C367.806 77.2131 366.911 76.9763 366.196 76.5028C365.486 76.0294 364.986 75.3641 364.697 74.5071C364.408 73.6501 364.356 72.6558 364.541 71.5241C364.726 70.4067 365.095 69.429 365.649 68.5909C366.208 67.7528 366.911 67.1042 367.758 66.6449C368.611 66.1809 369.565 65.9489 370.621 65.9489C371.695 65.9489 372.588 66.188 373.298 66.6662C374.008 67.1397 374.508 67.8049 374.797 68.6619C375.09 69.5189 375.145 70.518 374.96 71.6591C374.78 72.7718 374.408 73.7448 373.845 74.5781C373.286 75.4115 372.583 76.0601 371.736 76.5241C370.888 76.9834 369.936 77.2131 368.881 77.2131ZM369.094 75.1534C369.69 75.1534 370.213 74.9924 370.663 74.6705C371.118 74.3437 371.489 73.9058 371.778 73.3565C372.072 72.8026 372.275 72.187 372.389 71.5099C372.493 70.8565 372.496 70.2647 372.396 69.7344C372.297 69.1993 372.084 68.7756 371.757 68.4631C371.435 68.1458 370.988 67.9872 370.415 67.9872C369.818 67.9872 369.29 68.1529 368.831 68.4844C368.376 68.8111 368.005 69.2514 367.716 69.8054C367.427 70.3546 367.228 70.9678 367.119 71.6449C367.01 72.2983 367.006 72.8902 367.105 73.4205C367.204 73.9508 367.417 74.3722 367.744 74.6847C368.071 74.9972 368.521 75.1534 369.094 75.1534ZM381.048 77.2131C379.974 77.2131 379.079 76.9763 378.364 76.5028C377.654 76.0294 377.154 75.3641 376.865 74.5071C376.576 73.6501 376.524 72.6558 376.709 71.5241C376.894 70.4067 377.263 69.429 377.817 68.5909C378.376 67.7528 379.079 67.1042 379.926 66.6449C380.779 66.1809 381.733 65.9489 382.789 65.9489C383.863 65.9489 384.756 66.188 385.466 66.6662C386.176 67.1397 386.676 67.8049 386.965 68.6619C387.258 69.5189 387.313 70.518 387.128 71.6591C386.948 72.7718 386.576 73.7448 386.013 74.5781C385.454 75.4115 384.751 76.0601 383.904 76.5241C383.056 76.9834 382.104 77.2131 381.048 77.2131ZM381.262 75.1534C381.858 75.1534 382.381 74.9924 382.831 74.6705C383.286 74.3437 383.657 73.9058 383.946 73.3565C384.24 72.8026 384.443 72.187 384.557 71.5099C384.661 70.8565 384.664 70.2647 384.564 69.7344C384.465 69.1993 384.252 68.7756 383.925 68.4631C383.603 68.1458 383.155 67.9872 382.583 67.9872C381.986 67.9872 381.458 68.1529 380.999 68.4844C380.544 68.8111 380.173 69.2514 379.884 69.8054C379.595 70.3546 379.396 70.9678 379.287 71.6449C379.178 72.2983 379.173 72.8902 379.273 73.4205C379.372 73.9508 379.585 74.3722 379.912 74.6847C380.239 74.9972 380.689 75.1534 381.262 75.1534ZM398.38 68.9744L396.015 69.2301C395.991 68.9886 395.918 68.7637 395.795 68.5554C395.671 68.3471 395.487 68.1813 395.241 68.0582C394.999 67.9304 394.687 67.8665 394.303 67.8665C393.744 67.8665 393.254 67.992 392.833 68.2429C392.412 68.4938 392.172 68.8158 392.116 69.2088C392.064 69.5024 392.135 69.7415 392.329 69.9261C392.523 70.1108 392.883 70.267 393.408 70.3949L395.212 70.7926C396.206 71.0152 396.921 71.375 397.357 71.8722C397.797 72.3693 397.951 73.0204 397.819 73.8253C397.705 74.4976 397.412 75.0895 396.938 75.6009C396.465 76.1075 395.858 76.5028 395.12 76.7869C394.386 77.071 393.572 77.2131 392.677 77.2131C391.318 77.2131 390.271 76.9313 389.537 76.3679C388.808 75.7997 388.446 75.0185 388.451 74.0241L390.979 73.7827C391.008 74.2751 391.18 74.6468 391.498 74.8977C391.815 75.1439 392.255 75.2694 392.819 75.2741C393.453 75.2789 393.988 75.1463 394.424 74.8764C394.864 74.6018 395.113 74.268 395.17 73.875C395.217 73.5814 395.144 73.3423 394.949 73.1577C394.76 72.973 394.421 72.8262 393.934 72.7173L392.144 72.3267C391.131 72.1042 390.409 71.7277 389.978 71.1974C389.552 70.6624 389.407 69.9877 389.545 69.1733C389.658 68.5104 389.935 67.9399 390.376 67.4616C390.821 66.9787 391.391 66.607 392.087 66.3466C392.783 66.0814 393.562 65.9489 394.424 65.9489C395.721 65.9489 396.699 66.2211 397.357 66.7656C398.015 67.3101 398.356 68.0464 398.38 68.9744ZM404.207 77.2131C403.113 77.2131 402.209 76.9858 401.494 76.5312C400.779 76.072 400.277 75.4233 399.988 74.5852C399.704 73.7424 399.657 72.7505 399.846 71.6094C400.031 70.4872 400.407 69.5024 400.976 68.6548C401.544 67.8026 402.254 67.1397 403.106 66.6662C403.963 66.188 404.91 65.9489 405.947 65.9489C406.62 65.9489 407.238 66.0578 407.801 66.2756C408.364 66.4886 408.84 66.8201 409.229 67.2699C409.617 67.7197 409.884 68.2926 410.031 68.9886C410.178 69.6799 410.171 70.5038 410.01 71.4602L409.889 72.2486H400.94L401.217 70.5156H407.694C407.78 70.0232 407.751 69.5852 407.609 69.2017C407.467 68.8134 407.23 68.508 406.899 68.2855C406.568 68.063 406.153 67.9517 405.656 67.9517C405.149 67.9517 404.676 68.0819 404.236 68.3423C403.8 68.598 403.433 68.9295 403.135 69.3366C402.836 69.7438 402.647 70.1723 402.567 70.6222L402.275 72.2841C402.171 72.9659 402.195 73.5223 402.346 73.9531C402.498 74.384 402.763 74.7012 403.142 74.9048C403.521 75.1084 403.999 75.2102 404.577 75.2102C404.955 75.2102 405.306 75.1581 405.628 75.054C405.95 74.9498 406.236 74.7936 406.487 74.5852C406.743 74.3722 406.956 74.1117 407.126 73.804L409.477 74.0739C409.217 74.7083 408.836 75.2623 408.334 75.7358C407.832 76.2045 407.23 76.5691 406.53 76.8295C405.834 77.0852 405.059 77.2131 404.207 77.2131ZM421.405 62.4545L418.991 77H416.356L418.77 62.4545H421.405ZM421.737 77L423.556 66.0909H426.02L425.708 67.9446H425.843C426.174 67.3196 426.631 66.8319 427.213 66.4815C427.796 66.1264 428.451 65.9489 429.181 65.9489C429.914 65.9489 430.506 66.1288 430.956 66.4886C431.411 66.8437 431.69 67.3291 431.794 67.9446H431.908C432.249 67.3338 432.736 66.8485 433.371 66.4886C434.01 66.1288 434.727 65.9489 435.523 65.9489C436.517 65.9489 437.28 66.2661 437.81 66.9006C438.34 67.535 438.503 68.4607 438.3 69.6776L437.078 77H434.507L435.672 70.0753C435.776 69.3982 435.672 68.9034 435.36 68.5909C435.052 68.2737 434.637 68.1151 434.117 68.1151C433.496 68.1151 432.98 68.3068 432.568 68.6903C432.161 69.0739 431.91 69.5758 431.816 70.196L430.672 77H428.151L429.33 69.9688C429.415 69.4053 429.316 68.9555 429.031 68.6193C428.752 68.2831 428.34 68.1151 427.796 68.1151C427.426 68.1151 427.074 68.2098 426.737 68.3991C426.401 68.5885 426.115 68.8537 425.878 69.1946C425.646 69.5308 425.494 69.9214 425.423 70.3665L424.316 77H421.737ZM442.79 77.2202C442.099 77.2202 441.498 77.0971 440.986 76.8509C440.475 76.5999 440.099 76.2306 439.857 75.7429C439.62 75.2552 439.561 74.6539 439.68 73.9389C439.784 73.3234 439.983 72.8144 440.276 72.4119C440.574 72.0095 440.939 71.6875 441.37 71.446C441.805 71.1998 442.279 71.0152 442.79 70.892C443.306 70.7689 443.832 70.679 444.367 70.6222C445.02 70.5559 445.548 70.4943 445.951 70.4375C446.358 70.3807 446.663 70.2955 446.867 70.1818C447.071 70.0634 447.194 69.8835 447.236 69.642V69.5994C447.322 69.0644 447.236 68.6501 446.981 68.3565C446.725 68.063 446.299 67.9162 445.702 67.9162C445.077 67.9162 444.552 68.0535 444.126 68.3281C443.699 68.6027 443.389 68.9271 443.195 69.3011L440.866 68.9602C441.159 68.2973 441.562 67.7434 442.073 67.2983C442.584 66.8485 443.174 66.5123 443.841 66.2898C444.514 66.0625 445.231 65.9489 445.993 65.9489C446.514 65.9489 447.023 66.0104 447.52 66.1335C448.022 66.2566 448.465 66.4602 448.849 66.7443C449.237 67.0237 449.521 67.4048 449.701 67.8878C449.885 68.3707 449.916 68.9744 449.793 69.6989L448.579 77H446.107L446.363 75.5014H446.278C446.074 75.8045 445.809 76.0885 445.482 76.3537C445.155 76.6141 444.767 76.8248 444.317 76.9858C443.867 77.142 443.358 77.2202 442.79 77.2202ZM443.763 75.331C444.279 75.331 444.743 75.2292 445.155 75.0256C445.567 74.8172 445.906 74.5426 446.171 74.2017C446.436 73.8608 446.602 73.4891 446.668 73.0866L446.881 71.8011C446.787 71.8674 446.64 71.929 446.441 71.9858C446.242 72.0426 446.019 72.0923 445.773 72.1349C445.532 72.1776 445.293 72.2154 445.056 72.2486C444.819 72.2817 444.616 72.3101 444.445 72.3338C444.052 72.3859 443.692 72.4711 443.366 72.5895C443.044 72.7079 442.776 72.8736 442.563 73.0866C442.355 73.295 442.224 73.5649 442.172 73.8963C442.097 74.3651 442.208 74.7225 442.506 74.9688C442.805 75.2102 443.224 75.331 443.763 75.331ZM455.226 81.3182C454.298 81.3182 453.524 81.1927 452.904 80.9418C452.284 80.6955 451.805 80.3641 451.469 79.9474C451.133 79.5308 450.925 79.0691 450.844 78.5625L453.259 78.0014C453.33 78.2145 453.444 78.4252 453.6 78.6335C453.761 78.8466 453.998 79.0218 454.31 79.1591C454.623 79.3011 455.039 79.3722 455.56 79.3722C456.289 79.3722 456.926 79.1946 457.471 78.8395C458.015 78.4844 458.351 77.9067 458.479 77.1065L458.806 75.0398H458.678C458.508 75.3049 458.273 75.5772 457.975 75.8565C457.681 76.1359 457.31 76.3703 456.86 76.5597C456.415 76.7491 455.88 76.8438 455.255 76.8438C454.417 76.8438 453.69 76.6473 453.074 76.2543C452.459 75.8565 452.016 75.2647 451.746 74.4787C451.481 73.688 451.448 72.6984 451.647 71.5099C451.841 70.312 452.206 69.3011 452.741 68.4773C453.28 67.6487 453.927 67.0213 454.68 66.5952C455.432 66.1643 456.228 65.9489 457.066 65.9489C457.705 65.9489 458.214 66.0578 458.593 66.2756C458.972 66.4886 459.258 66.7467 459.452 67.0497C459.646 67.348 459.788 67.6297 459.878 67.8949H460.013L460.312 66.0909H462.847L461.015 77.1776C460.863 78.1103 460.515 78.8821 459.971 79.4929C459.426 80.1084 458.742 80.5653 457.918 80.8636C457.099 81.1667 456.202 81.3182 455.226 81.3182ZM456.278 74.8267C456.822 74.8267 457.31 74.6941 457.741 74.429C458.171 74.1638 458.531 73.7827 458.82 73.2855C459.109 72.7884 459.31 72.1918 459.424 71.4957C459.537 70.8092 459.533 70.2079 459.41 69.6918C459.291 69.1757 459.062 68.7756 458.721 68.4915C458.38 68.2027 457.935 68.0582 457.385 68.0582C456.813 68.0582 456.311 68.2074 455.88 68.5057C455.454 68.804 455.103 69.2135 454.829 69.7344C454.559 70.2505 454.369 70.8376 454.26 71.4957C454.156 72.1634 454.156 72.7481 454.26 73.25C454.369 73.7472 454.59 74.1354 454.921 74.4148C455.257 74.6894 455.709 74.8267 456.278 74.8267ZM468.465 77.2131C467.371 77.2131 466.467 76.9858 465.752 76.5312C465.037 76.072 464.535 75.4233 464.246 74.5852C463.962 73.7424 463.915 72.7505 464.104 71.6094C464.289 70.4872 464.665 69.5024 465.233 68.6548C465.802 67.8026 466.512 67.1397 467.364 66.6662C468.221 66.188 469.168 65.9489 470.205 65.9489C470.877 65.9489 471.495 66.0578 472.059 66.2756C472.622 66.4886 473.098 66.8201 473.486 67.2699C473.875 67.7197 474.142 68.2926 474.289 68.9886C474.436 69.6799 474.429 70.5038 474.268 71.4602L474.147 72.2486H465.198L465.475 70.5156H471.952C472.037 70.0232 472.009 69.5852 471.867 69.2017C471.725 68.8134 471.488 68.508 471.157 68.2855C470.825 68.063 470.411 67.9517 469.914 67.9517C469.407 67.9517 468.934 68.0819 468.493 68.3423C468.058 68.598 467.691 68.9295 467.393 69.3366C467.094 69.7438 466.905 70.1723 466.824 70.6222L466.533 72.2841C466.429 72.9659 466.453 73.5223 466.604 73.9531C466.756 74.384 467.021 74.7012 467.4 74.9048C467.778 75.1084 468.257 75.2102 468.834 75.2102C469.213 75.2102 469.564 75.1581 469.885 75.054C470.207 74.9498 470.494 74.7936 470.745 74.5852C471.001 74.3722 471.214 74.1117 471.384 73.804L473.735 74.0739C473.474 74.7083 473.093 75.2623 472.591 75.7358C472.09 76.2045 471.488 76.5691 470.787 76.8295C470.091 77.0852 469.317 77.2131 468.465 77.2131Z" fill="white"/>
<path d="M691.121 77L693.536 62.4545H698.991C700.108 62.4545 701.015 62.6487 701.711 63.0369C702.407 63.4252 702.892 63.9697 703.167 64.6705C703.441 65.3665 703.501 66.1785 703.344 67.1065C703.193 68.0346 702.861 68.8419 702.35 69.5284C701.843 70.2102 701.173 70.7382 700.34 71.1122C699.511 71.4863 698.538 71.6733 697.421 71.6733H693.536L693.905 69.4858H697.442C698.096 69.4858 698.645 69.3958 699.09 69.2159C699.535 69.0312 699.885 68.7637 700.141 68.4134C700.402 68.0582 700.574 67.6226 700.66 67.1065C700.74 66.5904 700.709 66.1501 700.567 65.7855C700.43 65.4162 700.167 65.1368 699.779 64.9474C699.395 64.7533 698.877 64.6562 698.224 64.6562H695.809L693.756 77H691.121ZM699.729 70.4091L702.236 77H699.296L696.853 70.4091H699.729ZM708.738 77.2131C707.645 77.2131 706.74 76.9858 706.025 76.5312C705.31 76.072 704.809 75.4233 704.52 74.5852C704.236 73.7424 704.188 72.7505 704.378 71.6094C704.562 70.4872 704.939 69.5024 705.507 68.6548C706.075 67.8026 706.785 67.1397 707.638 66.6662C708.495 66.188 709.442 65.9489 710.479 65.9489C711.151 65.9489 711.769 66.0578 712.332 66.2756C712.896 66.4886 713.372 66.8201 713.76 67.2699C714.148 67.7197 714.416 68.2926 714.562 68.9886C714.709 69.6799 714.702 70.5038 714.541 71.4602L714.42 72.2486H705.471L705.748 70.5156H712.226C712.311 70.0232 712.282 69.5852 712.14 69.2017C711.998 68.8134 711.762 68.508 711.43 68.2855C711.099 68.063 710.684 67.9517 710.187 67.9517C709.681 67.9517 709.207 68.0819 708.767 68.3423C708.331 68.598 707.964 68.9295 707.666 69.3366C707.368 69.7438 707.178 70.1723 707.098 70.6222L706.807 72.2841C706.702 72.9659 706.726 73.5223 706.878 73.9531C707.029 74.384 707.294 74.7012 707.673 74.9048C708.052 75.1084 708.53 75.2102 709.108 75.2102C709.487 75.2102 709.837 75.1581 710.159 75.054C710.481 74.9498 710.767 74.7936 711.018 74.5852C711.274 74.3722 711.487 74.1117 711.657 73.804L714.008 74.0739C713.748 74.7083 713.367 75.2623 712.865 75.7358C712.363 76.2045 711.762 76.5691 711.061 76.8295C710.365 77.0852 709.591 77.2131 708.738 77.2131ZM715.138 81.0909L717.652 66.0909H720.18L719.889 67.8949H720.038C720.209 67.6297 720.438 67.348 720.727 67.0497C721.021 66.7467 721.392 66.4886 721.842 66.2756C722.292 66.0578 722.839 65.9489 723.483 65.9489C724.321 65.9489 725.043 66.1643 725.649 66.5952C726.255 67.0213 726.688 67.6534 726.949 68.4915C727.214 69.3248 727.247 70.3475 727.048 71.5597C726.849 72.7576 726.482 73.7756 725.947 74.6136C725.412 75.4517 724.771 76.0909 724.023 76.5312C723.274 76.9716 722.472 77.1918 721.615 77.1918C720.99 77.1918 720.486 77.0876 720.102 76.8793C719.723 76.6709 719.437 76.42 719.243 76.1264C719.049 75.8281 718.904 75.5464 718.809 75.2812H718.696L717.73 81.0909H715.138ZM719.264 71.5455C719.15 72.2509 719.148 72.8688 719.257 73.3991C719.371 73.9295 719.595 74.3437 719.932 74.642C720.268 74.9356 720.708 75.0824 721.253 75.0824C721.821 75.0824 722.318 74.9309 722.744 74.6278C723.175 74.3201 723.532 73.901 723.817 73.3707C724.105 72.8357 724.309 72.2273 724.427 71.5455C724.536 70.8684 724.536 70.267 724.427 69.7415C724.318 69.2159 724.098 68.804 723.767 68.5057C723.435 68.2074 722.986 68.0582 722.417 68.0582C721.863 68.0582 721.369 68.2027 720.933 68.4915C720.502 68.7803 720.145 69.1851 719.861 69.706C719.577 70.2268 719.378 70.84 719.264 71.5455ZM731.443 77.2202C730.751 77.2202 730.15 77.0971 729.639 76.8509C729.127 76.5999 728.751 76.2306 728.509 75.7429C728.273 75.2552 728.213 74.6539 728.332 73.9389C728.436 73.3234 728.635 72.8144 728.928 72.4119C729.227 72.0095 729.591 71.6875 730.022 71.446C730.458 71.1998 730.931 71.0152 731.443 70.892C731.959 70.7689 732.484 70.679 733.019 70.6222C733.673 70.5559 734.201 70.4943 734.603 70.4375C735.01 70.3807 735.316 70.2955 735.519 70.1818C735.723 70.0634 735.846 69.8835 735.889 69.642V69.5994C735.974 69.0644 735.889 68.6501 735.633 68.3565C735.377 68.063 734.951 67.9162 734.355 67.9162C733.73 67.9162 733.204 68.0535 732.778 68.3281C732.352 68.6027 732.042 68.9271 731.847 69.3011L729.518 68.9602C729.811 68.2973 730.214 67.7434 730.725 67.2983C731.237 66.8485 731.826 66.5123 732.494 66.2898C733.166 66.0625 733.883 65.9489 734.646 65.9489C735.167 65.9489 735.676 66.0104 736.173 66.1335C736.675 66.2566 737.117 66.4602 737.501 66.7443C737.889 67.0237 738.173 67.4048 738.353 67.8878C738.538 68.3707 738.569 68.9744 738.445 69.6989L737.231 77H734.759L735.015 75.5014H734.93C734.726 75.8045 734.461 76.0885 734.134 76.3537C733.808 76.6141 733.419 76.8248 732.97 76.9858C732.52 77.142 732.011 77.2202 731.443 77.2202ZM732.416 75.331C732.932 75.331 733.396 75.2292 733.808 75.0256C734.22 74.8172 734.558 74.5426 734.823 74.2017C735.088 73.8608 735.254 73.4891 735.32 73.0866L735.534 71.8011C735.439 71.8674 735.292 71.929 735.093 71.9858C734.894 72.0426 734.672 72.0923 734.426 72.1349C734.184 72.1776 733.945 72.2154 733.708 72.2486C733.472 72.2817 733.268 72.3101 733.097 72.3338C732.704 72.3859 732.345 72.4711 732.018 72.5895C731.696 72.7079 731.428 72.8736 731.215 73.0866C731.007 73.295 730.877 73.5649 730.825 73.8963C730.749 74.3651 730.86 74.7225 731.159 74.9688C731.457 75.2102 731.876 75.331 732.416 75.331ZM739.816 77L741.634 66.0909H744.205L742.387 77H739.816ZM743.296 64.5284C742.884 64.5284 742.544 64.3911 742.274 64.1165C742.004 63.8419 741.885 63.5128 741.919 63.1293C741.952 62.7457 742.124 62.4167 742.437 62.142C742.754 61.8674 743.116 61.7301 743.524 61.7301C743.936 61.7301 744.274 61.8674 744.539 62.142C744.809 62.4167 744.927 62.7457 744.894 63.1293C744.866 63.5128 744.693 63.8419 744.376 64.1165C744.063 64.3911 743.704 64.5284 743.296 64.5284ZM748.667 70.608L747.616 77H745.038L746.856 66.0909H749.321L749.008 67.9446H749.143C749.484 67.3338 749.962 66.8485 750.578 66.4886C751.193 66.1288 751.911 65.9489 752.73 65.9489C753.473 65.9489 754.098 66.1098 754.605 66.4318C755.112 66.7491 755.471 67.2154 755.684 67.831C755.898 68.4418 755.931 69.1828 755.784 70.054L754.619 77H752.048L753.135 70.4517C753.258 69.7273 753.166 69.1591 752.858 68.7472C752.555 68.3305 752.067 68.1222 751.395 68.1222C750.945 68.1222 750.531 68.2216 750.152 68.4205C749.773 68.6146 749.453 68.8963 749.193 69.2656C748.937 69.6349 748.762 70.0824 748.667 70.608ZM764.484 66.0909L764.15 68.0795H757.886L758.213 66.0909H764.484ZM760.187 63.4773H762.758L761.054 73.7188C761.002 74.0644 761.011 74.3295 761.082 74.5142C761.158 74.6941 761.279 74.8172 761.444 74.8835C761.615 74.9498 761.807 74.983 762.02 74.983C762.176 74.983 762.323 74.9711 762.46 74.9474C762.597 74.919 762.706 74.8977 762.787 74.8835L762.9 76.8935C762.744 76.9408 762.533 76.9929 762.268 77.0497C762.008 77.1065 761.695 77.1397 761.331 77.1491C760.677 77.1634 760.109 77.0639 759.626 76.8509C759.148 76.633 758.798 76.2992 758.575 75.8494C758.357 75.3949 758.308 74.8267 758.426 74.1449L760.187 63.4773Z" fill="white"/>
<path d="M971.785 77H966.785L969.2 62.4545H974.157C975.602 62.4545 976.8 62.7528 977.751 63.3494C978.703 63.946 979.371 64.7983 979.754 65.9062C980.142 67.0095 980.209 68.3258 979.953 69.8551C979.707 71.3513 979.221 72.6321 978.497 73.6974C977.773 74.7628 976.842 75.5795 975.706 76.1477C974.569 76.7159 973.263 77 971.785 77ZM969.797 74.7202H971.92C972.929 74.7202 973.807 74.5284 974.555 74.1449C975.308 73.7566 975.921 73.1813 976.395 72.419C976.873 71.652 977.204 70.7003 977.389 69.5639C977.574 68.4749 977.562 67.5753 977.354 66.8651C977.145 66.1501 976.74 65.6174 976.139 65.267C975.542 64.9119 974.752 64.7344 973.767 64.7344H971.452L969.797 74.7202ZM985.951 77.2131C984.876 77.2131 983.981 76.9763 983.266 76.5028C982.556 76.0294 982.056 75.3641 981.768 74.5071C981.479 73.6501 981.427 72.6558 981.611 71.5241C981.796 70.4067 982.165 69.429 982.719 68.5909C983.278 67.7528 983.981 67.1042 984.829 66.6449C985.681 66.1809 986.635 65.9489 987.691 65.9489C988.766 65.9489 989.658 66.188 990.368 66.6662C991.079 67.1397 991.578 67.8049 991.867 68.6619C992.161 69.5189 992.215 70.518 992.03 71.6591C991.85 72.7718 991.479 73.7448 990.915 74.5781C990.357 75.4115 989.653 76.0601 988.806 76.5241C987.958 76.9834 987.007 77.2131 985.951 77.2131ZM986.164 75.1534C986.76 75.1534 987.284 74.9924 987.733 74.6705C988.188 74.3437 988.56 73.9058 988.849 73.3565C989.142 72.8026 989.346 72.187 989.459 71.5099C989.564 70.8565 989.566 70.2647 989.466 69.7344C989.367 69.1993 989.154 68.7756 988.827 68.4631C988.505 68.1458 988.058 67.9872 987.485 67.9872C986.888 67.9872 986.36 68.1529 985.901 68.4844C985.447 68.8111 985.075 69.2514 984.786 69.8054C984.497 70.3546 984.298 70.9678 984.189 71.6449C984.081 72.2983 984.076 72.8902 984.175 73.4205C984.275 73.9508 984.488 74.3722 984.814 74.6847C985.141 74.9972 985.591 75.1534 986.164 75.1534ZM995.271 77L994.007 66.0909H996.627L997.267 73.7614H997.366L1000.6 66.0909H1003.2L1003.88 73.7188H1003.99L1007.15 66.0909H1009.78L1004.87 77H1002.2L1001.37 69.6278H1001.22L997.955 77H995.271ZM1013.39 70.608L1012.34 77H1009.76L1011.58 66.0909H1014.05L1013.73 67.9446H1013.87C1014.21 67.3338 1014.69 66.8485 1015.3 66.4886C1015.92 66.1288 1016.64 65.9489 1017.46 65.9489C1018.2 65.9489 1018.82 66.1098 1019.33 66.4318C1019.84 66.7491 1020.2 67.2154 1020.41 67.831C1020.62 68.4418 1020.66 69.1828 1020.51 70.054L1019.35 77H1016.77L1017.86 70.4517C1017.98 69.7273 1017.89 69.1591 1017.58 68.7472C1017.28 68.3305 1016.79 68.1222 1016.12 68.1222C1015.67 68.1222 1015.26 68.2216 1014.88 68.4205C1014.5 68.6146 1014.18 68.8963 1013.92 69.2656C1013.66 69.6349 1013.49 70.0824 1013.39 70.608ZM1026.93 62.4545L1024.52 77H1021.95L1024.36 62.4545H1026.93ZM1031.95 77.2131C1030.87 77.2131 1029.98 76.9763 1029.26 76.5028C1028.55 76.0294 1028.05 75.3641 1027.76 74.5071C1027.47 73.6501 1027.42 72.6558 1027.61 71.5241C1027.79 70.4067 1028.16 69.429 1028.72 68.5909C1029.27 67.7528 1029.98 67.1042 1030.82 66.6449C1031.68 66.1809 1032.63 65.9489 1033.69 65.9489C1034.76 65.9489 1035.65 66.188 1036.36 66.6662C1037.07 67.1397 1037.57 67.8049 1037.86 68.6619C1038.16 69.5189 1038.21 70.518 1038.03 71.6591C1037.85 72.7718 1037.47 73.7448 1036.91 74.5781C1036.35 75.4115 1035.65 76.0601 1034.8 76.5241C1033.95 76.9834 1033 77.2131 1031.95 77.2131ZM1032.16 75.1534C1032.76 75.1534 1033.28 74.9924 1033.73 74.6705C1034.18 74.3437 1034.56 73.9058 1034.84 73.3565C1035.14 72.8026 1035.34 72.187 1035.46 71.5099C1035.56 70.8565 1035.56 70.2647 1035.46 69.7344C1035.36 69.1993 1035.15 68.7756 1034.82 68.4631C1034.5 68.1458 1034.05 67.9872 1033.48 67.9872C1032.88 67.9872 1032.36 68.1529 1031.9 68.4844C1031.44 68.8111 1031.07 69.2514 1030.78 69.8054C1030.49 70.3546 1030.29 70.9678 1030.19 71.6449C1030.08 72.2983 1030.07 72.8902 1030.17 73.4205C1030.27 73.9508 1030.48 74.3722 1030.81 74.6847C1031.14 74.9972 1031.59 75.1534 1032.16 75.1534ZM1042.44 77.2202C1041.75 77.2202 1041.15 77.0971 1040.63 76.8509C1040.12 76.5999 1039.75 76.2306 1039.51 75.7429C1039.27 75.2552 1039.21 74.6539 1039.33 73.9389C1039.43 73.3234 1039.63 72.8144 1039.92 72.4119C1040.22 72.0095 1040.59 71.6875 1041.02 71.446C1041.45 71.1998 1041.93 71.0152 1042.44 70.892C1042.95 70.7689 1043.48 70.679 1044.02 70.6222C1044.67 70.5559 1045.2 70.4943 1045.6 70.4375C1046.01 70.3807 1046.31 70.2955 1046.52 70.1818C1046.72 70.0634 1046.84 69.8835 1046.88 69.642V69.5994C1046.97 69.0644 1046.88 68.6501 1046.63 68.3565C1046.37 68.063 1045.95 67.9162 1045.35 67.9162C1044.73 67.9162 1044.2 68.0535 1043.77 68.3281C1043.35 68.6027 1043.04 68.9271 1042.84 69.3011L1040.51 68.9602C1040.81 68.2973 1041.21 67.7434 1041.72 67.2983C1042.23 66.8485 1042.82 66.5123 1043.49 66.2898C1044.16 66.0625 1044.88 65.9489 1045.64 65.9489C1046.16 65.9489 1046.67 66.0104 1047.17 66.1335C1047.67 66.2566 1048.11 66.4602 1048.5 66.7443C1048.89 67.0237 1049.17 67.4048 1049.35 67.8878C1049.53 68.3707 1049.56 68.9744 1049.44 69.6989L1048.23 77H1045.76L1046.01 75.5014H1045.93C1045.72 75.8045 1045.46 76.0885 1045.13 76.3537C1044.8 76.6141 1044.42 76.8248 1043.97 76.9858C1043.52 77.142 1043.01 77.2202 1042.44 77.2202ZM1043.41 75.331C1043.93 75.331 1044.39 75.2292 1044.8 75.0256C1045.22 74.8172 1045.55 74.5426 1045.82 74.2017C1046.08 73.8608 1046.25 73.4891 1046.32 73.0866L1046.53 71.8011C1046.43 71.8674 1046.29 71.929 1046.09 71.9858C1045.89 72.0426 1045.67 72.0923 1045.42 72.1349C1045.18 72.1776 1044.94 72.2154 1044.7 72.2486C1044.47 72.2817 1044.26 72.3101 1044.09 72.3338C1043.7 72.3859 1043.34 72.4711 1043.01 72.5895C1042.69 72.7079 1042.42 72.8736 1042.21 73.0866C1042 73.295 1041.87 73.5649 1041.82 73.8963C1041.75 74.3651 1041.86 74.7225 1042.15 74.9688C1042.45 75.2102 1042.87 75.331 1043.41 75.331ZM1054.85 77.1918C1053.99 77.1918 1053.26 76.9716 1052.65 76.5312C1052.05 76.0909 1051.61 75.4517 1051.36 74.6136C1051.11 73.7756 1051.08 72.7576 1051.27 71.5597C1051.48 70.3475 1051.85 69.3248 1052.39 68.4915C1052.93 67.6534 1053.57 67.0213 1054.32 66.5952C1055.07 66.1643 1055.87 65.9489 1056.71 65.9489C1057.35 65.9489 1057.86 66.0578 1058.23 66.2756C1058.61 66.4886 1058.9 66.7467 1059.09 67.0497C1059.28 67.348 1059.42 67.6297 1059.51 67.8949H1059.61L1060.51 62.4545H1063.09L1060.68 77H1058.15L1058.44 75.2812H1058.28C1058.1 75.5464 1057.86 75.8281 1057.57 76.1264C1057.27 76.42 1056.9 76.6709 1056.45 76.8793C1056.01 77.0876 1055.47 77.1918 1054.85 77.1918ZM1055.87 75.0824C1056.42 75.0824 1056.91 74.9356 1057.35 74.642C1057.79 74.3437 1058.15 73.9295 1058.45 73.3991C1058.74 72.8688 1058.95 72.2509 1059.07 71.5455C1059.18 70.84 1059.18 70.2268 1059.07 69.706C1058.95 69.1851 1058.72 68.7803 1058.38 68.4915C1058.04 68.2027 1057.59 68.0582 1057.03 68.0582C1056.47 68.0582 1055.97 68.2074 1055.54 68.5057C1055.11 68.804 1054.76 69.2159 1054.48 69.7415C1054.21 70.267 1054.02 70.8684 1053.9 71.5455C1053.79 72.2273 1053.78 72.8357 1053.88 73.3707C1053.98 73.901 1054.2 74.3201 1054.53 74.6278C1054.86 74.9309 1055.31 75.0824 1055.87 75.0824ZM1068.5 77L1070.92 62.4545H1076.37C1077.49 62.4545 1078.4 62.6487 1079.09 63.0369C1079.79 63.4252 1080.27 63.9697 1080.55 64.6705C1080.82 65.3665 1080.88 66.1785 1080.73 67.1065C1080.58 68.0346 1080.24 68.8419 1079.73 69.5284C1079.23 70.2102 1078.56 70.7382 1077.72 71.1122C1076.89 71.4863 1075.92 71.6733 1074.8 71.6733H1070.92L1071.29 69.4858H1074.83C1075.48 69.4858 1076.03 69.3958 1076.47 69.2159C1076.92 69.0312 1077.27 68.7637 1077.52 68.4134C1077.78 68.0582 1077.96 67.6226 1078.04 67.1065C1078.12 66.5904 1078.09 66.1501 1077.95 65.7855C1077.81 65.4162 1077.55 65.1368 1077.16 64.9474C1076.78 64.7533 1076.26 64.6562 1075.61 64.6562H1073.19L1071.14 77H1068.5ZM1077.11 70.4091L1079.62 77H1076.68L1074.24 70.4091H1077.11ZM1086.12 77.2131C1085.03 77.2131 1084.12 76.9858 1083.41 76.5312C1082.69 76.072 1082.19 75.4233 1081.9 74.5852C1081.62 73.7424 1081.57 72.7505 1081.76 71.6094C1081.95 70.4872 1082.32 69.5024 1082.89 68.6548C1083.46 67.8026 1084.17 67.1397 1085.02 66.6662C1085.88 66.188 1086.82 65.9489 1087.86 65.9489C1088.53 65.9489 1089.15 66.0578 1089.72 66.2756C1090.28 66.4886 1090.75 66.8201 1091.14 67.2699C1091.53 67.7197 1091.8 68.2926 1091.95 68.9886C1092.09 69.6799 1092.08 70.5038 1091.92 71.4602L1091.8 72.2486H1082.85L1083.13 70.5156H1089.61C1089.69 70.0232 1089.67 69.5852 1089.52 69.2017C1089.38 68.8134 1089.14 68.508 1088.81 68.2855C1088.48 68.063 1088.07 67.9517 1087.57 67.9517C1087.06 67.9517 1086.59 68.0819 1086.15 68.3423C1085.71 68.598 1085.35 68.9295 1085.05 69.3366C1084.75 69.7438 1084.56 70.1723 1084.48 70.6222L1084.19 72.2841C1084.09 72.9659 1084.11 73.5223 1084.26 73.9531C1084.41 74.384 1084.68 74.7012 1085.06 74.9048C1085.43 75.1084 1085.91 75.2102 1086.49 75.2102C1086.87 75.2102 1087.22 75.1581 1087.54 75.054C1087.86 74.9498 1088.15 74.7936 1088.4 74.5852C1088.66 74.3722 1088.87 74.1117 1089.04 73.804L1091.39 74.0739C1091.13 74.7083 1090.75 75.2623 1090.25 75.7358C1089.75 76.2045 1089.14 76.5691 1088.44 76.8295C1087.75 77.0852 1086.97 77.2131 1086.12 77.2131ZM1103.15 68.9744L1100.78 69.2301C1100.76 68.9886 1100.68 68.7637 1100.56 68.5554C1100.44 68.3471 1100.25 68.1813 1100.01 68.0582C1099.76 67.9304 1099.45 67.8665 1099.07 67.8665C1098.51 67.8665 1098.02 67.992 1097.6 68.2429C1097.18 68.4938 1096.94 68.8158 1096.88 69.2088C1096.83 69.5024 1096.9 69.7415 1097.09 69.9261C1097.29 70.1108 1097.65 70.267 1098.17 70.3949L1099.98 70.7926C1100.97 71.0152 1101.69 71.375 1102.12 71.8722C1102.56 72.3693 1102.72 73.0204 1102.58 73.8253C1102.47 74.4976 1102.18 75.0895 1101.7 75.6009C1101.23 76.1075 1100.62 76.5028 1099.89 76.7869C1099.15 77.071 1098.34 77.2131 1097.44 77.2131C1096.08 77.2131 1095.04 76.9313 1094.3 76.3679C1093.57 75.7997 1093.21 75.0185 1093.22 74.0241L1095.74 73.7827C1095.77 74.2751 1095.95 74.6468 1096.26 74.8977C1096.58 75.1439 1097.02 75.2694 1097.58 75.2741C1098.22 75.2789 1098.75 75.1463 1099.19 74.8764C1099.63 74.6018 1099.88 74.268 1099.94 73.875C1099.98 73.5814 1099.91 73.3423 1099.72 73.1577C1099.53 72.973 1099.19 72.8262 1098.7 72.7173L1096.91 72.3267C1095.9 72.1042 1095.17 71.7277 1094.74 71.1974C1094.32 70.6624 1094.17 69.9877 1094.31 69.1733C1094.42 68.5104 1094.7 67.9399 1095.14 67.4616C1095.59 66.9787 1096.16 66.607 1096.85 66.3466C1097.55 66.0814 1098.33 65.9489 1099.19 65.9489C1100.49 65.9489 1101.46 66.2211 1102.12 66.7656C1102.78 67.3101 1103.12 68.0464 1103.15 68.9744ZM1111.88 72.4119L1112.94 66.0909H1115.51L1113.7 77H1111.2L1111.53 75.0611H1111.42C1111.08 75.6719 1110.59 76.1714 1109.95 76.5597C1109.32 76.9479 1108.6 77.142 1107.78 77.142C1107.06 77.142 1106.46 76.9834 1105.97 76.6662C1105.48 76.3442 1105.13 75.8778 1104.92 75.267C1104.71 74.6515 1104.68 73.9081 1104.83 73.0369L1105.99 66.0909H1108.56L1107.47 72.6392C1107.36 73.3305 1107.46 73.8797 1107.77 74.2869C1108.08 74.6941 1108.54 74.8977 1109.16 74.8977C1109.54 74.8977 1109.92 74.8054 1110.3 74.6207C1110.69 74.4361 1111.03 74.1615 1111.32 73.7969C1111.61 73.4276 1111.79 72.9659 1111.88 72.4119ZM1121.33 62.4545L1118.91 77H1116.34L1118.75 62.4545H1121.33ZM1128.82 66.0909L1128.49 68.0795H1122.22L1122.55 66.0909H1128.82ZM1124.52 63.4773H1127.09L1125.39 73.7188C1125.34 74.0644 1125.35 74.3295 1125.42 74.5142C1125.49 74.6941 1125.61 74.8172 1125.78 74.8835C1125.95 74.9498 1126.14 74.983 1126.36 74.983C1126.51 74.983 1126.66 74.9711 1126.8 74.9474C1126.93 74.919 1127.04 74.8977 1127.12 74.8835L1127.24 76.8935C1127.08 76.9408 1126.87 76.9929 1126.6 77.0497C1126.34 77.1065 1126.03 77.1397 1125.67 77.1491C1125.01 77.1634 1124.45 77.0639 1123.96 76.8509C1123.48 76.633 1123.13 76.2992 1122.91 75.8494C1122.69 75.3949 1122.64 74.8267 1122.76 74.1449L1124.52 63.4773Z" fill="white"/>
<g filter="url(#filter0_d_869_12)">
<line x1="88" y1="25" x2="408" y2="25" stroke="#007BE5" stroke-width="6"/>
</g>
<line x1="408" y1="25" x2="728" y2="25" stroke="#007BE5" stroke-width="6"/>
<line x1="728" y1="25" x2="1048" y2="25" stroke="white" stroke-width="6"/>
<rect x="998" width="100" height="50" rx="25" fill="white"/>
<path d="M1041.75 14.583V27.083H1050.08V35.4163H1054.25V14.583H1050.08V22.9163H1045.92V14.583H1041.75Z" fill="#007BE5"/>
<rect x="678" width="100" height="50" rx="25" fill="#007BE5"/>
<path d="M734.25 31.2497V28.1247C734.25 27.2959 733.921 26.501 733.335 25.915C732.749 25.3289 731.954 24.9997 731.125 24.9997C731.954 24.9997 732.749 24.6704 733.335 24.0844C733.921 23.4983 734.25 22.7035 734.25 21.8747V18.7497C734.25 17.6446 733.811 16.5848 733.03 15.8034C732.248 15.022 731.188 14.583 730.083 14.583H721.75V18.7497H730.083V22.9163H725.917V27.083H730.083V31.2497H721.75V35.4163H730.083C731.188 35.4163 732.248 34.9774 733.03 34.196C733.811 33.4145 734.25 32.3547 734.25 31.2497Z" fill="white"/>
<rect x="358" width="100" height="50" rx="25" fill="#007BE5"/>
<rect x="38" width="100" height="50" rx="25" fill="#007BE5"/>
<path d="M85.6673 32.6663L97.4173 20.9163L95.084 18.583L85.6673 27.9997L80.9173 23.2497L78.584 25.583L85.6673 32.6663ZM88.0007 41.6663C85.6951 41.6663 83.5284 41.2286 81.5007 40.353C79.4729 39.4786 77.709 38.2913 76.209 36.7913C74.709 35.2913 73.5218 33.5275 72.6473 31.4997C71.7718 29.4719 71.334 27.3052 71.334 24.9997C71.334 22.6941 71.7718 20.5275 72.6473 18.4997C73.5218 16.4719 74.709 14.708 76.209 13.208C77.709 11.708 79.4729 10.5202 81.5007 9.64467C83.5284 8.77023 85.6951 8.33301 88.0007 8.33301C90.3062 8.33301 92.4729 8.77023 94.5007 9.64467C96.5284 10.5202 98.2923 11.708 99.7923 13.208C101.292 14.708 102.48 16.4719 103.354 18.4997C104.23 20.5275 104.667 22.6941 104.667 24.9997C104.667 27.3052 104.23 29.4719 103.354 31.4997C102.48 33.5275 101.292 35.2913 99.7923 36.7913C98.2923 38.2913 96.5284 39.4786 94.5007 40.353C92.4729 41.2286 90.3062 41.6663 88.0007 41.6663ZM88.0007 38.333C91.7229 38.333 94.8756 37.0413 97.459 34.458C100.042 31.8747 101.334 28.7219 101.334 24.9997C101.334 21.2775 100.042 18.1247 97.459 15.5413C94.8756 12.958 91.7229 11.6663 88.0007 11.6663C84.2784 11.6663 81.1257 12.958 78.5423 15.5413C75.959 18.1247 74.6673 21.2775 74.6673 24.9997C74.6673 28.7219 75.959 31.8747 78.5423 34.458C81.1257 37.0413 84.2784 38.333 88.0007 38.333Z" fill="white"/>
<path d="M405.667 32.6663L417.417 20.9163L415.084 18.583L405.667 27.9997L400.917 23.2497L398.584 25.583L405.667 32.6663ZM408.001 41.6663C405.695 41.6663 403.528 41.2286 401.501 40.353C399.473 39.4786 397.709 38.2913 396.209 36.7913C394.709 35.2913 393.522 33.5275 392.647 31.4997C391.772 29.4719 391.334 27.3052 391.334 24.9997C391.334 22.6941 391.772 20.5275 392.647 18.4997C393.522 16.4719 394.709 14.708 396.209 13.208C397.709 11.708 399.473 10.5202 401.501 9.64467C403.528 8.77023 405.695 8.33301 408.001 8.33301C410.306 8.33301 412.473 8.77023 414.501 9.64467C416.528 10.5202 418.292 11.708 419.792 13.208C421.292 14.708 422.48 16.4719 423.354 18.4997C424.23 20.5275 424.667 22.6941 424.667 24.9997C424.667 27.3052 424.23 29.4719 423.354 31.4997C422.48 33.5275 421.292 35.2913 419.792 36.7913C418.292 38.2913 416.528 39.4786 414.501 40.353C412.473 41.2286 410.306 41.6663 408.001 41.6663ZM408.001 38.333C411.723 38.333 414.876 37.0413 417.459 34.458C420.042 31.8747 421.334 28.7219 421.334 24.9997C421.334 21.2775 420.042 18.1247 417.459 15.5413C414.876 12.958 411.723 11.6663 408.001 11.6663C404.278 11.6663 401.126 12.958 398.542 15.5413C395.959 18.1247 394.667 21.2775 394.667 24.9997C394.667 28.7219 395.959 31.8747 398.542 34.458C401.126 37.0413 404.278 38.333 408.001 38.333Z" fill="white"/>
<defs>
<filter id="filter0_d_869_12" x="84" y="22" width="328" height="14" filterUnits="userSpaceOnUse" color-interpolation-filters="sRGB">
<feFlood flood-opacity="0" result="BackgroundImageFix"/>
<feColorMatrix in="SourceAlpha" type="matrix" values="0 0 0 0 0 0 0 0 0 0 0 0 0 0 0 0 0 0 127 0" result="hardAlpha"/>
<feOffset dy="4"/>
<feGaussianBlur stdDeviation="2"/>
<feComposite in2="hardAlpha" operator="out"/>
<feColorMatrix type="matrix" values="0 0 0 0 0 0 0 0 0 0 0 0 0 0 0 0 0 0 0.25 0"/>
<feBlend mode="normal" in2="BackgroundImageFix" result="effect1_dropShadow_869_12"/>
<feBlend mode="normal" in="SourceGraphic" in2="effect1_dropShadow_869_12" result="shape"/>
</filter>
</defs>
</svg>
