<svg width="87" height="80" viewBox="0 0 87 80" fill="none" xmlns="http://www.w3.org/2000/svg">
<path d="M79.2383 40.0563C79.2383 39.1832 78.8629 38.3458 78.1946 37.7283C77.5264 37.1109 76.62 36.7641 75.6749 36.7641C74.7299 36.7641 73.8235 37.1109 73.1552 37.7283C72.487 38.3458 72.1115 39.1832 72.1115 40.0563H79.2383ZM43.6045 13.7183C44.5496 13.7183 45.4559 13.3714 46.1242 12.754C46.7925 12.1366 47.1679 11.2992 47.1679 10.426C47.1679 9.55288 46.7925 8.71548 46.1242 8.09807C45.4559 7.48065 44.5496 7.13379 43.6045 7.13379V13.7183ZM70.3299 66.3944H16.8792V72.9789H70.3299V66.3944ZM15.0975 64.7482V15.3644H7.9707V64.7482H15.0975ZM72.1115 40.0563V64.7482H79.2383V40.0563H72.1115ZM16.8792 13.7183H43.6045V7.13379H16.8792V13.7183ZM16.8792 66.3944C16.4066 66.3944 15.9534 66.2209 15.6193 65.9122C15.2852 65.6035 15.0975 65.1848 15.0975 64.7482H7.9707C7.9707 66.9311 8.90927 69.0246 10.5799 70.5682C12.2506 72.1117 14.5165 72.9789 16.8792 72.9789V66.3944ZM70.3299 72.9789C72.6925 72.9789 74.9584 72.1117 76.6291 70.5682C78.2997 69.0246 79.2383 66.9311 79.2383 64.7482H72.1115C72.1115 65.1848 71.9238 65.6035 71.5897 65.9122C71.2556 66.2209 70.8024 66.3944 70.3299 66.3944V72.9789ZM15.0975 15.3644C15.0975 14.9278 15.2852 14.5091 15.6193 14.2004C15.9534 13.8917 16.4066 13.7183 16.8792 13.7183V7.13379C14.5165 7.13379 12.2506 8.00094 10.5799 9.54449C8.90927 11.088 7.9707 13.1815 7.9707 15.3644H15.0975Z" fill="#898989"/>
<path d="M11.5332 58.1637L30.5848 42.0284C31.227 41.4846 32.0624 41.177 32.9334 41.1637C33.8043 41.1503 34.6503 41.4322 35.3116 41.9559L57.8571 59.8098M50.7304 51.5792L59.2344 43.7222C59.841 43.1615 60.6462 42.8217 61.5021 42.7655C62.358 42.7092 63.2072 42.9402 63.8935 43.416L75.674 51.5792M66.7656 30.1795V10.426M57.8571 18.6567L66.7656 10.426L75.674 18.6567" stroke="#898989" stroke-width="4" stroke-linecap="round" stroke-linejoin="round"/>
</svg>